<svg width="33" height="32" viewBox="0 0 33 32" fill="none" xmlns="http://www.w3.org/2000/svg">
<path d="M29.833 15.9997C29.833 10.9714 29.833 8.4572 28.2709 6.8951C26.7088 5.33301 24.1947 5.33301 19.1663 5.33301H15.1663C12.5492 5.33301 11.2406 5.33301 10.1145 5.89606C8.98842 6.45912 8.20329 7.50597 6.63301 9.59967C4.3219 12.6812 3.16634 14.2219 3.16634 15.9997C3.16634 17.7775 4.3219 19.3182 6.63301 22.3997C8.20329 24.4934 8.98842 25.5402 10.1145 26.1033C11.2406 26.6663 12.5492 26.6663 15.1663 26.6663H19.1663C24.1947 26.6663 26.7088 26.6663 28.2709 25.1042C29.833 23.5421 29.833 21.028 29.833 15.9997Z" stroke="white" stroke-width="2"/>
<path d="M13.833 12L21.833 19.9995M13.833 20L21.833 12.0005" stroke="white" stroke-width="2" stroke-linecap="round" stroke-linejoin="round"/>
</svg>
