<svg width="24" height="24" viewBox="0 0 24 24" fill="none" xmlns="http://www.w3.org/2000/svg">
<g clip-path="url(#clip0_7047_128338)">
<path d="M12.0351 20.7998C9.50442 20.7998 6.96842 20.7998 4.44308 20.7998C2.48308 20.7838 1.60042 19.9038 1.60042 17.9304C1.59153 13.9767 1.59153 10.0247 1.60042 6.07443C1.60042 4.1011 2.48575 3.19976 4.43775 3.19976C9.50264 3.18732 14.5693 3.18732 19.6377 3.19976C21.5044 3.19976 22.4004 4.1091 22.4084 5.99976C22.4244 9.99443 22.4244 13.9944 22.4084 17.9998C22.4004 19.8878 21.5044 20.7784 19.6271 20.7998C17.0964 20.8131 14.5658 20.7998 12.0351 20.7998ZM3.28308 12.7998C4.49375 12.7998 5.68308 12.8211 6.87242 12.7998C8.10442 12.7704 8.96042 13.3011 9.58975 14.3544C10.9417 16.6184 13.0564 16.5918 14.4404 14.3011C15.0457 13.3038 15.8724 12.7811 17.0538 12.8024C18.2857 12.8211 19.5177 12.8024 20.7231 12.8024C20.9391 11.6451 20.5497 11.2024 19.4804 11.2024C14.4724 11.2255 9.46619 11.2255 4.46175 11.2024C3.36042 11.1998 3.07775 11.7331 3.28308 12.7998ZM20.7284 6.38376C20.9364 5.27443 20.5791 4.78376 19.4964 4.78376C14.4991 4.81043 9.49197 4.81576 4.47508 4.79976C3.30975 4.79976 3.07242 5.37843 3.28842 6.39976L20.7284 6.38376ZM3.27508 9.54643L20.7311 9.54643C20.9737 8.34643 20.4644 7.9811 19.3684 7.9891C14.4564 8.01576 9.53819 8.01932 4.61375 7.99976C3.52042 7.98376 3.02442 8.37043 3.27508 9.54643Z" fill="#22C55E"/>
<path opacity="0.4" d="M3.28271 12.8002C3.07738 11.7335 3.36004 11.2002 4.46138 11.2002C9.4676 11.2198 14.4738 11.2198 19.48 11.2002C20.5467 11.2002 20.9387 11.6535 20.7227 12.8002C19.5174 12.8002 18.2854 12.8162 17.0534 12.8002C15.872 12.7789 15.0454 13.3015 14.44 14.2989C13.048 16.5869 10.9334 16.6135 9.60004 14.3495C8.97071 13.2829 8.11471 12.7655 6.88271 12.7949C5.68271 12.8215 4.49338 12.8002 3.28271 12.8002Z" fill="#22C55E"/>
<path opacity="0.4" d="M20.7276 6.38418L3.28756 6.38418C3.07156 5.37351 3.30889 4.78418 4.47422 4.78418C9.48223 4.79662 14.4893 4.79662 19.4956 4.78418C20.5782 4.80018 20.9356 5.27485 20.7276 6.38418Z" fill="#22C55E"/>
<path opacity="0.4" d="M3.2748 9.54665C3.02414 8.37065 3.52014 7.98398 4.60814 7.98931C9.52547 8.01598 14.4437 8.01598 19.3628 7.98931C20.4455 7.98931 20.9628 8.34665 20.7255 9.54665L3.2748 9.54665Z" fill="#22C55E"/>
</g>
<defs>
<clipPath id="clip0_7047_128338">
<rect width="24" height="24" fill="white"/>
</clipPath>
</defs>
</svg>
